<?xml version="1.0" encoding="iso-8859-1"?>
<!-- Uploaded to: SVG Repo, www.svgrepo.com, Generator: SVG Repo Mixer Tools -->
<svg fill="#000000" height="800px" width="800px" version="1.1" id="Layer_1" xmlns="http://www.w3.org/2000/svg" xmlns:xlink="http://www.w3.org/1999/xlink" 
	 viewBox="0 0 512.002 512.002" xml:space="preserve">
<g>
	<g>
		<g>
			<path d="M509.984,238.166c-4.096-17.323-13.867-31.829-26.773-39.808c-9.472-5.824-20.203-7.68-30.357-5.333
				c-0.893,0.217-2.297,0.646-3.985,1.199c-18.594-44.893-47.654-77.878-84.582-99.977c-3.132-1.874-6.294-3.643-9.479-5.328
				l6.225-16.75c4.105-11.044-1.521-23.324-12.565-27.429c-11.044-4.105-23.324,1.521-27.429,12.565l-5.786,15.568
				c-7.173-2.11-14.393-3.847-21.627-5.222c-5.805-1.104-11.257-1.921-16.291-2.501V42.668c0-11.782-9.551-21.333-21.333-21.333
				s-21.333,9.551-21.333,21.333v23.202c-11.592,1.744-24.289,4.779-37.604,9.455l-5.713-17.291
				c-3.696-11.187-15.762-17.26-26.949-13.563c-11.187,3.696-17.26,15.762-13.563,26.949l7.226,21.87
				c-3.667,2.116-7.344,4.363-11.023,6.755c-7.646,4.972-14.945,10.398-21.889,16.27l-24.739-24.739
				c-8.331-8.331-21.839-8.331-30.17,0s-8.331,21.839,0,30.17l25.262,25.262c-20.352,25.81-35.724,57.463-45.085,95.342
				c-5.289-0.828-6.856-0.829-7.752-0.829C17.536,241.522,0,265.031,0,298.674c0,33.621,17.536,57.131,42.667,57.131
				c1.617,0,4.128-0.249,7.112-0.645c6.084,22.505,16.034,43.765,29.761,62.697c35.463,48.866,90.324,72.811,176.461,72.811
				c82.41,0,138.218-29.267,176.455-81.955c21.878-30.174,34.185-66.248,36.484-103.867c1.169,0.035,2.195,0.052,3.093,0.052
				c4.267,0,5.739-0.363,7.275-0.725C503.904,298.305,517.365,269.313,509.984,238.166z M185.754,207.09
				c-11.776,0-21.333,9.557-21.333,21.333c0,1.9,0.273,3.732,0.739,5.485c-9.213-2.46-15.954-10.894-15.828-20.854
				c0.16-11.775,9.836-21.2,21.619-21.051c9.769,0.124,17.906,6.819,20.312,15.832C189.502,207.365,187.662,207.09,185.754,207.09z
				 M397.918,383.66c-30.309,41.764-73.36,64.341-141.918,64.341c-73.295,0-115.111-18.252-141.924-55.197
				c-13.379-18.452-22.196-39.927-26.224-62.755c-0.029-0.888-0.093-1.782-0.236-2.682c-2.987-18.773-2.837-37.824,0.427-56.555
				c0.078-0.45,0.117-0.896,0.166-1.344c0.026-0.145,0.048-0.289,0.075-0.434c4.119-22.266,10.362-41.974,18.494-59.349
				c-0.053,0.931-0.096,1.866-0.109,2.808c-0.448,35.352,27.84,64.373,63.173,64.821c35.337,0.48,64.375-27.806,64.823-63.152
				c0.448-35.35-27.835-64.375-63.173-64.823c-4.96-0.063-9.788,0.459-14.437,1.467c-0.52-1.347-1.176-2.653-1.98-3.893
				c4.869-3.968,9.944-7.668,15.223-11.1c0.499-0.325,1.004-0.635,1.505-0.954c3.761,11.079,15.759,17.074,26.889,13.396
				c11.187-3.696,17.26-15.762,13.563-26.949l-1.681-5.086c6.563-2.262,13.174-4.145,19.786-5.665
				c1.559-0.358,3.067-0.686,4.525-0.987c1.419,10.406,10.318,18.431,21.113,18.431c11.366,0,20.629-8.896,21.271-20.101
				c7.332,0.971,15.12,2.542,23.17,4.824l-0.438,1.179c-4.105,11.044,1.521,23.324,12.565,27.429
				c10.852,4.033,22.892-1.332,27.202-11.998c0.869,0.5,1.738,1.006,2.607,1.526c14.161,8.474,26.871,18.974,37.926,31.713
				c-10.576-8.128-23.775-13.032-38.138-13.215c-35.342-0.48-64.375,27.811-64.823,63.173c-0.448,35.333,27.84,64.354,63.173,64.802
				c35.339,0.448,64.354-27.825,64.802-63.173c0.082-6.004-0.686-11.818-2.16-17.349c4.457,8.78,8.39,18.256,11.769,28.458
				c0.165,0.91,0.368,1.819,0.658,2.723c3.563,11.093,6.208,21.525,8.128,31.915c1.259,6.805,2.069,14.187,2.539,23.211
				c0.043,0.887,0.158,1.752,0.306,2.607C427.829,321.417,418.014,355.943,397.918,383.66z M330.676,194.887
				c3.215-1.859,6.944-2.921,10.929-2.867c11.786,0.149,21.209,9.819,21.049,21.579c-0.149,11.8-9.816,21.22-21.598,21.07
				c-3.793-0.048-7.336-1.097-10.401-2.875c6.375-3.69,10.678-10.569,10.678-18.46C341.333,205.452,337.04,198.581,330.676,194.887z
				"/>
			<path d="M320.271,327.077c9.131-0.149,16.469-7.744,16.32-16.853c-0.149-9.131-17.131-32.896-17.131-32.896
				c-0.128-0.128-16.192,24.32-16.043,33.429C303.567,319.888,311.14,327.227,320.271,327.077z"/>
			<path d="M256,320.001c17.664,0,32-14.336,32-32s-14.336-32-32-32s-32,14.336-32,32S238.336,320.001,256,320.001z"/>
			<path d="M375.392,324.212c-9.456-7.028-22.82-5.059-29.848,4.397c-21.926,29.503-147.303,48.577-182.144,18.02
				c-8.858-7.769-22.337-6.886-30.105,1.972c-7.769,8.858-6.886,22.337,1.972,30.105c54.277,47.603,208.234,24.181,244.522-24.647
				C386.817,344.603,384.848,331.24,375.392,324.212z"/>
		</g>
	</g>
</g>
</svg>